<svg width="360" height="800" viewBox="0 0 360 800" fill="none" xmlns="http://www.w3.org/2000/svg">
<rect width="360" height="800" rx="40" fill="#2C8C09"/>
<path d="M139.392 175.091L143.205 181.536H143.353L147.185 175.091H151.7L145.929 184.545L151.829 194H147.231L143.353 187.546H143.205L139.327 194H134.748L140.666 184.545L134.859 175.091H139.392Z" fill="white" fill-opacity="0.95"/>
<path d="M299.395 216.541L300.839 223.889L300.978 223.938L306.741 219.141L310.997 220.648L302.402 227.635L304.809 238.516L300.475 236.982L298.973 229.604L298.833 229.555L293.024 234.345L288.707 232.817L297.441 225.879L295.121 215.028L299.395 216.541Z" fill="white" fill-opacity="0.95"/>
<path d="M49.6981 170.215L56.5413 173.255L56.6616 173.17L56.0477 165.697L59.7265 163.08L60.5055 174.129L70.7938 178.412L67.0473 181.078L60.1461 178.067L60.0258 178.153L60.6074 185.66L56.8759 188.315L56.2173 177.18L46.0043 172.843L49.6981 170.215Z" fill="white" fill-opacity="0.95"/>
<path d="M50.7998 508.494L50.0278 515.942L50.1465 516.03L57.0615 513.133L60.6894 515.82L50.4247 519.982L49.5377 531.091L45.843 528.354L46.5686 520.86L46.4499 520.772L39.4923 523.65L35.8124 520.924L46.1959 516.85L47.1571 505.796L50.7998 508.494Z" fill="white" fill-opacity="0.95"/>
<path d="M246.99 709.096L246.293 716.552L246.412 716.639L253.298 713.672L256.953 716.323L246.73 720.588L245.955 731.705L242.233 729.006L242.883 721.504L242.764 721.418L235.835 724.365L232.128 721.676L242.47 717.498L243.32 706.435L246.99 709.096Z" fill="white" fill-opacity="0.95"/>
<path d="M72.4404 661.5L69.6671 668.456L69.7574 668.573L77.2004 667.67L79.9583 671.245L68.9477 672.451L65.0659 682.897L62.2572 679.257L64.9984 672.244L64.9081 672.127L57.4295 672.999L54.6322 669.373L65.733 668.284L69.6713 657.911L72.4404 661.5Z" fill="white" fill-opacity="0.95"/>
<path d="M271.023 570.347L270.826 577.832L270.951 577.911L277.623 574.489L281.447 576.89L271.533 581.83L271.504 592.974L267.61 590.53L267.756 583.002L267.631 582.923L260.916 586.328L257.037 583.894L267.076 579.032L267.183 567.937L271.023 570.347Z" fill="white" fill-opacity="0.95"/>
<path d="M179.455 565.478L173.421 569.912L173.435 570.059L180.228 573.232L180.677 577.725L170.696 572.921L161.874 579.731L161.417 575.156L167.454 570.656L167.44 570.509L160.633 567.291L160.178 562.735L170.173 567.685L179.004 560.967L179.455 565.478Z" fill="white" fill-opacity="0.95"/>
<path d="M325.321 656.97L319.287 661.405L319.302 661.552L326.095 664.724L326.544 669.217L316.563 664.414L307.741 671.223L307.284 666.648L313.321 662.148L313.306 662.001L306.499 658.784L306.045 654.227L316.04 659.177L324.871 652.459L325.321 656.97Z" fill="white" fill-opacity="0.95"/>
<path d="M67.3214 432.97L61.2873 437.405L61.302 437.552L68.0953 440.724L68.5436 445.217L58.5628 440.414L49.7408 447.223L49.2842 442.648L55.3211 438.148L55.3064 438.001L48.4994 434.784L48.0446 430.227L58.0401 435.177L66.8712 428.459L67.3214 432.97Z" fill="white" fill-opacity="0.95"/>
<path d="M221.287 252.305L223.075 259.577L223.216 259.62L228.747 254.558L233.07 255.863L224.812 263.246L227.727 274.002L223.325 272.673L221.479 265.374L221.337 265.331L215.759 270.388L211.375 269.064L219.774 261.724L216.948 250.995L221.287 252.305Z" fill="white" fill-opacity="0.95"/>
<path d="M107.413 273.721L114.417 276.37L114.533 276.277L113.497 268.852L117.022 266.03L118.425 277.018L128.939 280.712L125.349 283.585L118.289 280.97L118.173 281.062L119.179 288.524L115.604 291.386L114.316 280.306L103.874 276.554L107.413 273.721Z" fill="white" fill-opacity="0.95"/>
<path d="M106.498 393.564L113.455 396.334L113.572 396.244L112.665 388.801L116.238 386.041L117.45 397.051L127.899 400.928L124.26 403.738L117.246 401.001L117.129 401.091L118.005 408.569L114.38 411.368L113.285 400.268L102.91 396.335L106.498 393.564Z" fill="white" fill-opacity="0.95"/>
<path d="M231.138 390.24L232.316 397.635L232.453 397.689L238.385 393.104L242.584 394.763L233.742 401.435L235.754 412.396L231.478 410.706L230.244 403.279L230.106 403.225L224.128 407.801L219.869 406.118L228.848 399.501L226.922 388.573L231.138 390.24Z" fill="white" fill-opacity="0.95"/>
<path d="M66.0769 45.6299L72.698 49.1277L72.8239 49.0504L72.7182 41.5535L76.5661 39.1917L76.5939 50.2681L86.568 55.2395L82.6492 57.6448L75.9682 54.173L75.8423 54.2503L75.9135 61.7792L72.0105 64.1749L72.1086 53.0211L62.2133 48.0014L66.0769 45.6299Z" fill="white" fill-opacity="0.95"/>
<path d="M247.753 131.357L243.953 137.81L244.024 137.939L251.518 138.18L253.7 142.133L242.634 141.649L237.207 151.382L234.985 147.357L238.762 140.843L238.691 140.714L231.166 140.437L228.954 136.427L240.091 137.041L245.563 127.388L247.753 131.357Z" fill="white" fill-opacity="0.95"/>
<path d="M323.392 32.0909L327.205 38.5355H327.353L331.185 32.0909H335.7L329.929 41.5455L335.829 51H331.231L327.353 44.5462H327.205L323.327 51H318.748L324.666 41.5455L318.859 32.0909H323.392Z" fill="white" fill-opacity="0.95"/>
<path d="M115.02 470.545C115.02 472.607 114.629 474.362 113.847 475.808C113.072 477.255 112.013 478.36 110.671 479.123C109.335 479.88 107.834 480.259 106.165 480.259C104.485 480.259 102.977 479.877 101.641 479.114C100.306 478.35 99.25 477.246 98.4744 475.799C97.6989 474.353 97.3111 472.601 97.3111 470.545C97.3111 468.483 97.6989 466.729 98.4744 465.283C99.25 463.836 100.306 462.734 101.641 461.977C102.977 461.214 104.485 460.832 106.165 460.832C107.834 460.832 109.335 461.214 110.671 461.977C112.013 462.734 113.072 463.836 113.847 465.283C114.629 466.729 115.02 468.483 115.02 470.545ZM110.967 470.545C110.967 469.21 110.767 468.083 110.366 467.166C109.973 466.249 109.415 465.554 108.695 465.08C107.975 464.606 107.132 464.369 106.165 464.369C105.199 464.369 104.356 464.606 103.636 465.08C102.915 465.554 102.355 466.249 101.955 467.166C101.561 468.083 101.364 469.21 101.364 470.545C101.364 471.881 101.561 473.008 101.955 473.925C102.355 474.842 102.915 475.537 103.636 476.011C104.356 476.485 105.199 476.722 106.165 476.722C107.132 476.722 107.975 476.485 108.695 476.011C109.415 475.537 109.973 474.842 110.366 473.925C110.767 473.008 110.967 471.881 110.967 470.545Z" fill="white"/>
<path d="M130.02 47.5455C130.02 49.6075 129.629 51.3617 128.847 52.8082C128.072 54.2547 127.013 55.3596 125.671 56.1229C124.335 56.88 122.834 57.2585 121.165 57.2585C119.485 57.2585 117.977 56.8769 116.641 56.1136C115.306 55.3504 114.25 54.2455 113.474 52.799C112.699 51.3525 112.311 49.6013 112.311 47.5455C112.311 45.4834 112.699 43.7292 113.474 42.2827C114.25 40.8362 115.306 39.7344 116.641 38.9773C117.977 38.214 119.485 37.8324 121.165 37.8324C122.834 37.8324 124.335 38.214 125.671 38.9773C127.013 39.7344 128.072 40.8362 128.847 42.2827C129.629 43.7292 130.02 45.4834 130.02 47.5455ZM125.967 47.5455C125.967 46.2098 125.767 45.0833 125.366 44.1662C124.973 43.2491 124.415 42.5535 123.695 42.0795C122.975 41.6056 122.132 41.3686 121.165 41.3686C120.199 41.3686 119.356 41.6056 118.636 42.0795C117.915 42.5535 117.355 43.2491 116.955 44.1662C116.561 45.0833 116.364 46.2098 116.364 47.5455C116.364 48.8812 116.561 50.0076 116.955 50.9247C117.355 51.8419 117.915 52.5374 118.636 53.0114C119.356 53.4853 120.199 53.7223 121.165 53.7223C122.132 53.7223 122.975 53.4853 123.695 53.0114C124.415 52.5374 124.973 51.8419 125.366 50.9247C125.767 50.0076 125.967 48.8812 125.967 47.5455Z" fill="white"/>
<path d="M204.02 699.545C204.02 701.607 203.629 703.362 202.847 704.808C202.072 706.255 201.013 707.36 199.671 708.123C198.335 708.88 196.834 709.259 195.165 709.259C193.485 709.259 191.977 708.877 190.641 708.114C189.306 707.35 188.25 706.246 187.474 704.799C186.699 703.353 186.311 701.601 186.311 699.545C186.311 697.483 186.699 695.729 187.474 694.283C188.25 692.836 189.306 691.734 190.641 690.977C191.977 690.214 193.485 689.832 195.165 689.832C196.834 689.832 198.335 690.214 199.671 690.977C201.013 691.734 202.072 692.836 202.847 694.283C203.629 695.729 204.02 697.483 204.02 699.545ZM199.967 699.545C199.967 698.21 199.767 697.083 199.366 696.166C198.973 695.249 198.415 694.554 197.695 694.08C196.975 693.606 196.132 693.369 195.165 693.369C194.199 693.369 193.356 693.606 192.636 694.08C191.915 694.554 191.355 695.249 190.955 696.166C190.561 697.083 190.364 698.21 190.364 699.545C190.364 700.881 190.561 702.008 190.955 702.925C191.355 703.842 191.915 704.537 192.636 705.011C193.356 705.485 194.199 705.722 195.165 705.722C196.132 705.722 196.975 705.485 197.695 705.011C198.415 704.537 198.973 703.842 199.366 702.925C199.767 702.008 199.967 700.881 199.967 699.545Z" fill="white"/>
<path d="M48.0199 275.545C48.0199 277.607 47.629 279.362 46.8473 280.808C46.0717 282.255 45.013 283.36 43.6712 284.123C42.3355 284.88 40.8336 285.259 39.1655 285.259C37.4851 285.259 35.977 284.877 34.6413 284.114C33.3056 283.35 32.25 282.246 31.4744 280.799C30.6989 279.353 30.3111 277.601 30.3111 275.545C30.3111 273.483 30.6989 271.729 31.4744 270.283C32.25 268.836 33.3056 267.734 34.6413 266.977C35.977 266.214 37.4851 265.832 39.1655 265.832C40.8336 265.832 42.3355 266.214 43.6712 266.977C45.013 267.734 46.0717 268.836 46.8473 270.283C47.629 271.729 48.0199 273.483 48.0199 275.545ZM43.9666 275.545C43.9666 274.21 43.7666 273.083 43.3665 272.166C42.9725 271.249 42.4155 270.554 41.6953 270.08C40.9751 269.606 40.1319 269.369 39.1655 269.369C38.1991 269.369 37.3558 269.606 36.6357 270.08C35.9155 270.554 35.3554 271.249 34.9553 272.166C34.5613 273.083 34.3643 274.21 34.3643 275.545C34.3643 276.881 34.5613 278.008 34.9553 278.925C35.3554 279.842 35.9155 280.537 36.6357 281.011C37.3558 281.485 38.1991 281.722 39.1655 281.722C40.1319 281.722 40.9751 281.485 41.6953 281.011C42.4155 280.537 42.9725 279.842 43.3665 278.925C43.7666 278.008 43.9666 276.881 43.9666 275.545Z" fill="white"/>
<path d="M231.02 534.545C231.02 536.607 230.629 538.362 229.847 539.808C229.072 541.255 228.013 542.36 226.671 543.123C225.335 543.88 223.834 544.259 222.165 544.259C220.485 544.259 218.977 543.877 217.641 543.114C216.306 542.35 215.25 541.246 214.474 539.799C213.699 538.353 213.311 536.601 213.311 534.545C213.311 532.483 213.699 530.729 214.474 529.283C215.25 527.836 216.306 526.734 217.641 525.977C218.977 525.214 220.485 524.832 222.165 524.832C223.834 524.832 225.335 525.214 226.671 525.977C228.013 526.734 229.072 527.836 229.847 529.283C230.629 530.729 231.02 532.483 231.02 534.545ZM226.967 534.545C226.967 533.21 226.767 532.083 226.366 531.166C225.973 530.249 225.415 529.554 224.695 529.08C223.975 528.606 223.132 528.369 222.165 528.369C221.199 528.369 220.356 528.606 219.636 529.08C218.915 529.554 218.355 530.249 217.955 531.166C217.561 532.083 217.364 533.21 217.364 534.545C217.364 535.881 217.561 537.008 217.955 537.925C218.355 538.842 218.915 539.537 219.636 540.011C220.356 540.485 221.199 540.722 222.165 540.722C223.132 540.722 223.975 540.485 224.695 540.011C225.415 539.537 225.973 538.842 226.366 537.925C226.767 537.008 226.967 535.881 226.967 534.545Z" fill="white"/>
<path d="M268.02 51.5455C268.02 53.6075 267.629 55.3617 266.847 56.8082C266.072 58.2547 265.013 59.3596 263.671 60.1229C262.335 60.88 260.834 61.2585 259.165 61.2585C257.485 61.2585 255.977 60.8769 254.641 60.1136C253.306 59.3504 252.25 58.2455 251.474 56.799C250.699 55.3525 250.311 53.6013 250.311 51.5455C250.311 49.4834 250.699 47.7292 251.474 46.2827C252.25 44.8362 253.306 43.7344 254.641 42.9773C255.977 42.214 257.485 41.8324 259.165 41.8324C260.834 41.8324 262.335 42.214 263.671 42.9773C265.013 43.7344 266.072 44.8362 266.847 46.2827C267.629 47.7292 268.02 49.4834 268.02 51.5455ZM263.967 51.5455C263.967 50.2098 263.767 49.0833 263.366 48.1662C262.973 47.2491 262.415 46.5535 261.695 46.0795C260.975 45.6056 260.132 45.3686 259.165 45.3686C258.199 45.3686 257.356 45.6056 256.636 46.0795C255.915 46.5535 255.355 47.2491 254.955 48.1662C254.561 49.0833 254.364 50.2098 254.364 51.5455C254.364 52.8812 254.561 54.0076 254.955 54.9247C255.355 55.8419 255.915 56.5374 256.636 57.0114C257.356 57.4853 258.199 57.7223 259.165 57.7223C260.132 57.7223 260.975 57.4853 261.695 57.0114C262.415 56.5374 262.973 55.8419 263.366 54.9247C263.767 54.0076 263.967 52.8812 263.967 51.5455Z" fill="white"/>
<path d="M103.02 134.545C103.02 136.607 102.629 138.362 101.847 139.808C101.072 141.255 100.013 142.36 98.6712 143.123C97.3355 143.88 95.8336 144.259 94.1655 144.259C92.4851 144.259 90.977 143.877 89.6413 143.114C88.3056 142.35 87.25 141.246 86.4744 139.799C85.6989 138.353 85.3111 136.601 85.3111 134.545C85.3111 132.483 85.6989 130.729 86.4744 129.283C87.25 127.836 88.3056 126.734 89.6413 125.977C90.977 125.214 92.4851 124.832 94.1655 124.832C95.8336 124.832 97.3355 125.214 98.6712 125.977C100.013 126.734 101.072 127.836 101.847 129.283C102.629 130.729 103.02 132.483 103.02 134.545ZM98.9666 134.545C98.9666 133.21 98.7666 132.083 98.3665 131.166C97.9725 130.249 97.4155 129.554 96.6953 129.08C95.9751 128.606 95.1319 128.369 94.1655 128.369C93.1991 128.369 92.3558 128.606 91.6357 129.08C90.9155 129.554 90.3554 130.249 89.9553 131.166C89.5613 132.083 89.3643 133.21 89.3643 134.545C89.3643 135.881 89.5613 137.008 89.9553 137.925C90.3554 138.842 90.9155 139.537 91.6357 140.011C92.3558 140.485 93.1991 140.722 94.1655 140.722C95.1319 140.722 95.9751 140.485 96.6953 140.011C97.4155 139.537 97.9725 138.842 98.3665 137.925C98.7666 137.008 98.9666 135.881 98.9666 134.545Z" fill="white"/>
<path d="M188.02 139.545C188.02 141.607 187.629 143.362 186.847 144.808C186.072 146.255 185.013 147.36 183.671 148.123C182.335 148.88 180.834 149.259 179.165 149.259C177.485 149.259 175.977 148.877 174.641 148.114C173.306 147.35 172.25 146.246 171.474 144.799C170.699 143.353 170.311 141.601 170.311 139.545C170.311 137.483 170.699 135.729 171.474 134.283C172.25 132.836 173.306 131.734 174.641 130.977C175.977 130.214 177.485 129.832 179.165 129.832C180.834 129.832 182.335 130.214 183.671 130.977C185.013 131.734 186.072 132.836 186.847 134.283C187.629 135.729 188.02 137.483 188.02 139.545ZM183.967 139.545C183.967 138.21 183.767 137.083 183.366 136.166C182.973 135.249 182.415 134.554 181.695 134.08C180.975 133.606 180.132 133.369 179.165 133.369C178.199 133.369 177.356 133.606 176.636 134.08C175.915 134.554 175.355 135.249 174.955 136.166C174.561 137.083 174.364 138.21 174.364 139.545C174.364 140.881 174.561 142.008 174.955 142.925C175.355 143.842 175.915 144.537 176.636 145.011C177.356 145.485 178.199 145.722 179.165 145.722C180.132 145.722 180.975 145.485 181.695 145.011C182.415 144.537 182.973 143.842 183.366 142.925C183.767 142.008 183.967 140.881 183.967 139.545Z" fill="white"/>
<path d="M312.02 159.545C312.02 161.607 311.629 163.362 310.847 164.808C310.072 166.255 309.013 167.36 307.671 168.123C306.335 168.88 304.834 169.259 303.165 169.259C301.485 169.259 299.977 168.877 298.641 168.114C297.306 167.35 296.25 166.246 295.474 164.799C294.699 163.353 294.311 161.601 294.311 159.545C294.311 157.483 294.699 155.729 295.474 154.283C296.25 152.836 297.306 151.734 298.641 150.977C299.977 150.214 301.485 149.832 303.165 149.832C304.834 149.832 306.335 150.214 307.671 150.977C309.013 151.734 310.072 152.836 310.847 154.283C311.629 155.729 312.02 157.483 312.02 159.545ZM307.967 159.545C307.967 158.21 307.767 157.083 307.366 156.166C306.973 155.249 306.415 154.554 305.695 154.08C304.975 153.606 304.132 153.369 303.165 153.369C302.199 153.369 301.356 153.606 300.636 154.08C299.915 154.554 299.355 155.249 298.955 156.166C298.561 157.083 298.364 158.21 298.364 159.545C298.364 160.881 298.561 162.008 298.955 162.925C299.355 163.842 299.915 164.537 300.636 165.011C301.356 165.485 302.199 165.722 303.165 165.722C304.132 165.722 304.975 165.485 305.695 165.011C306.415 164.537 306.973 163.842 307.366 162.925C307.767 162.008 307.967 160.881 307.967 159.545Z" fill="white"/>
<path d="M126.02 546.545C126.02 548.607 125.629 550.362 124.847 551.808C124.072 553.255 123.013 554.36 121.671 555.123C120.335 555.88 118.834 556.259 117.165 556.259C115.485 556.259 113.977 555.877 112.641 555.114C111.306 554.35 110.25 553.246 109.474 551.799C108.699 550.353 108.311 548.601 108.311 546.545C108.311 544.483 108.699 542.729 109.474 541.283C110.25 539.836 111.306 538.734 112.641 537.977C113.977 537.214 115.485 536.832 117.165 536.832C118.834 536.832 120.335 537.214 121.671 537.977C123.013 538.734 124.072 539.836 124.847 541.283C125.629 542.729 126.02 544.483 126.02 546.545ZM121.967 546.545C121.967 545.21 121.767 544.083 121.366 543.166C120.973 542.249 120.415 541.554 119.695 541.08C118.975 540.606 118.132 540.369 117.165 540.369C116.199 540.369 115.356 540.606 114.636 541.08C113.915 541.554 113.355 542.249 112.955 543.166C112.561 544.083 112.364 545.21 112.364 546.545C112.364 547.881 112.561 549.008 112.955 549.925C113.355 550.842 113.915 551.537 114.636 552.011C115.356 552.485 116.199 552.722 117.165 552.722C118.132 552.722 118.975 552.485 119.695 552.011C120.415 551.537 120.973 550.842 121.366 549.925C121.767 549.008 121.967 547.881 121.967 546.545Z" fill="white"/>
<path d="M226.02 461.545C226.02 463.607 225.629 465.362 224.847 466.808C224.072 468.255 223.013 469.36 221.671 470.123C220.335 470.88 218.834 471.259 217.165 471.259C215.485 471.259 213.977 470.877 212.641 470.114C211.306 469.35 210.25 468.246 209.474 466.799C208.699 465.353 208.311 463.601 208.311 461.545C208.311 459.483 208.699 457.729 209.474 456.283C210.25 454.836 211.306 453.734 212.641 452.977C213.977 452.214 215.485 451.832 217.165 451.832C218.834 451.832 220.335 452.214 221.671 452.977C223.013 453.734 224.072 454.836 224.847 456.283C225.629 457.729 226.02 459.483 226.02 461.545ZM221.967 461.545C221.967 460.21 221.767 459.083 221.366 458.166C220.973 457.249 220.415 456.554 219.695 456.08C218.975 455.606 218.132 455.369 217.165 455.369C216.199 455.369 215.356 455.606 214.636 456.08C213.915 456.554 213.355 457.249 212.955 458.166C212.561 459.083 212.364 460.21 212.364 461.545C212.364 462.881 212.561 464.008 212.955 464.925C213.355 465.842 213.915 466.537 214.636 467.011C215.356 467.485 216.199 467.722 217.165 467.722C218.132 467.722 218.975 467.485 219.695 467.011C220.415 466.537 220.973 465.842 221.366 464.925C221.767 464.008 221.967 462.881 221.967 461.545Z" fill="white"/>
<path d="M63.0199 337.545C63.0199 339.607 62.629 341.362 61.8473 342.808C61.0717 344.255 60.013 345.36 58.6712 346.123C57.3355 346.88 55.8336 347.259 54.1655 347.259C52.4851 347.259 50.977 346.877 49.6413 346.114C48.3056 345.35 47.25 344.246 46.4744 342.799C45.6989 341.353 45.3111 339.601 45.3111 337.545C45.3111 335.483 45.6989 333.729 46.4744 332.283C47.25 330.836 48.3056 329.734 49.6413 328.977C50.977 328.214 52.4851 327.832 54.1655 327.832C55.8336 327.832 57.3355 328.214 58.6712 328.977C60.013 329.734 61.0717 330.836 61.8473 332.283C62.629 333.729 63.0199 335.483 63.0199 337.545ZM58.9666 337.545C58.9666 336.21 58.7666 335.083 58.3665 334.166C57.9725 333.249 57.4155 332.554 56.6953 332.08C55.9751 331.606 55.1319 331.369 54.1655 331.369C53.1991 331.369 52.3558 331.606 51.6357 332.08C50.9155 332.554 50.3554 333.249 49.9553 334.166C49.5613 335.083 49.3643 336.21 49.3643 337.545C49.3643 338.881 49.5613 340.008 49.9553 340.925C50.3554 341.842 50.9155 342.537 51.6357 343.011C52.3558 343.485 53.1991 343.722 54.1655 343.722C55.1319 343.722 55.9751 343.485 56.6953 343.011C57.4155 342.537 57.9725 341.842 58.3665 340.925C58.7666 340.008 58.9666 338.881 58.9666 337.545Z" fill="white"/>
<path d="M298.02 321.545C298.02 323.607 297.629 325.362 296.847 326.808C296.072 328.255 295.013 329.36 293.671 330.123C292.335 330.88 290.834 331.259 289.165 331.259C287.485 331.259 285.977 330.877 284.641 330.114C283.306 329.35 282.25 328.246 281.474 326.799C280.699 325.353 280.311 323.601 280.311 321.545C280.311 319.483 280.699 317.729 281.474 316.283C282.25 314.836 283.306 313.734 284.641 312.977C285.977 312.214 287.485 311.832 289.165 311.832C290.834 311.832 292.335 312.214 293.671 312.977C295.013 313.734 296.072 314.836 296.847 316.283C297.629 317.729 298.02 319.483 298.02 321.545ZM293.967 321.545C293.967 320.21 293.767 319.083 293.366 318.166C292.973 317.249 292.415 316.554 291.695 316.08C290.975 315.606 290.132 315.369 289.165 315.369C288.199 315.369 287.356 315.606 286.636 316.08C285.915 316.554 285.355 317.249 284.955 318.166C284.561 319.083 284.364 320.21 284.364 321.545C284.364 322.881 284.561 324.008 284.955 324.925C285.355 325.842 285.915 326.537 286.636 327.011C287.356 327.485 288.199 327.722 289.165 327.722C290.132 327.722 290.975 327.485 291.695 327.011C292.415 326.537 292.973 325.842 293.366 324.925C293.767 324.008 293.967 322.881 293.967 321.545Z" fill="white"/>
<path d="M74.0199 598.545C74.0199 600.607 73.629 602.362 72.8473 603.808C72.0717 605.255 71.013 606.36 69.6712 607.123C68.3355 607.88 66.8336 608.259 65.1655 608.259C63.4851 608.259 61.977 607.877 60.6413 607.114C59.3056 606.35 58.25 605.246 57.4744 603.799C56.6989 602.353 56.3111 600.601 56.3111 598.545C56.3111 596.483 56.6989 594.729 57.4744 593.283C58.25 591.836 59.3056 590.734 60.6413 589.977C61.977 589.214 63.4851 588.832 65.1655 588.832C66.8336 588.832 68.3355 589.214 69.6712 589.977C71.013 590.734 72.0717 591.836 72.8473 593.283C73.629 594.729 74.0199 596.483 74.0199 598.545ZM69.9666 598.545C69.9666 597.21 69.7666 596.083 69.3665 595.166C68.9725 594.249 68.4155 593.554 67.6953 593.08C66.9751 592.606 66.1319 592.369 65.1655 592.369C64.1991 592.369 63.3558 592.606 62.6357 593.08C61.9155 593.554 61.3554 594.249 60.9553 595.166C60.5613 596.083 60.3643 597.21 60.3643 598.545C60.3643 599.881 60.5613 601.008 60.9553 601.925C61.3554 602.842 61.9155 603.537 62.6357 604.011C63.3558 604.485 64.1991 604.722 65.1655 604.722C66.1319 604.722 66.9751 604.485 67.6953 604.011C68.4155 603.537 68.9725 602.842 69.3665 601.925C69.7666 601.008 69.9666 599.881 69.9666 598.545Z" fill="white"/>
<path d="M114.02 762.545C114.02 764.607 113.629 766.362 112.847 767.808C112.072 769.255 111.013 770.36 109.671 771.123C108.335 771.88 106.834 772.259 105.165 772.259C103.485 772.259 101.977 771.877 100.641 771.114C99.3056 770.35 98.25 769.246 97.4744 767.799C96.6989 766.353 96.3111 764.601 96.3111 762.545C96.3111 760.483 96.6989 758.729 97.4744 757.283C98.25 755.836 99.3056 754.734 100.641 753.977C101.977 753.214 103.485 752.832 105.165 752.832C106.834 752.832 108.335 753.214 109.671 753.977C111.013 754.734 112.072 755.836 112.847 757.283C113.629 758.729 114.02 760.483 114.02 762.545ZM109.967 762.545C109.967 761.21 109.767 760.083 109.366 759.166C108.973 758.249 108.415 757.554 107.695 757.08C106.975 756.606 106.132 756.369 105.165 756.369C104.199 756.369 103.356 756.606 102.636 757.08C101.915 757.554 101.355 758.249 100.955 759.166C100.561 760.083 100.364 761.21 100.364 762.545C100.364 763.881 100.561 765.008 100.955 765.925C101.355 766.842 101.915 767.537 102.636 768.011C103.356 768.485 104.199 768.722 105.165 768.722C106.132 768.722 106.975 768.485 107.695 768.011C108.415 767.537 108.973 766.842 109.366 765.925C109.767 765.008 109.967 763.881 109.967 762.545Z" fill="white"/>
<path d="M179.02 327.545C179.02 329.607 178.629 331.362 177.847 332.808C177.072 334.255 176.013 335.36 174.671 336.123C173.335 336.88 171.834 337.259 170.165 337.259C168.485 337.259 166.977 336.877 165.641 336.114C164.306 335.35 163.25 334.246 162.474 332.799C161.699 331.353 161.311 329.601 161.311 327.545C161.311 325.483 161.699 323.729 162.474 322.283C163.25 320.836 164.306 319.734 165.641 318.977C166.977 318.214 168.485 317.832 170.165 317.832C171.834 317.832 173.335 318.214 174.671 318.977C176.013 319.734 177.072 320.836 177.847 322.283C178.629 323.729 179.02 325.483 179.02 327.545ZM174.967 327.545C174.967 326.21 174.767 325.083 174.366 324.166C173.973 323.249 173.415 322.554 172.695 322.08C171.975 321.606 171.132 321.369 170.165 321.369C169.199 321.369 168.356 321.606 167.636 322.08C166.915 322.554 166.355 323.249 165.955 324.166C165.561 325.083 165.364 326.21 165.364 327.545C165.364 328.881 165.561 330.008 165.955 330.925C166.355 331.842 166.915 332.537 167.636 333.011C168.356 333.485 169.199 333.722 170.165 333.722C171.132 333.722 171.975 333.485 172.695 333.011C173.415 332.537 173.973 331.842 174.366 330.925C174.767 330.008 174.967 328.881 174.967 327.545Z" fill="white"/>
<path d="M312.02 499.545C312.02 501.607 311.629 503.362 310.847 504.808C310.072 506.255 309.013 507.36 307.671 508.123C306.335 508.88 304.834 509.259 303.165 509.259C301.485 509.259 299.977 508.877 298.641 508.114C297.306 507.35 296.25 506.246 295.474 504.799C294.699 503.353 294.311 501.601 294.311 499.545C294.311 497.483 294.699 495.729 295.474 494.283C296.25 492.836 297.306 491.734 298.641 490.977C299.977 490.214 301.485 489.832 303.165 489.832C304.834 489.832 306.335 490.214 307.671 490.977C309.013 491.734 310.072 492.836 310.847 494.283C311.629 495.729 312.02 497.483 312.02 499.545ZM307.967 499.545C307.967 498.21 307.767 497.083 307.366 496.166C306.973 495.249 306.415 494.554 305.695 494.08C304.975 493.606 304.132 493.369 303.165 493.369C302.199 493.369 301.356 493.606 300.636 494.08C299.915 494.554 299.355 495.249 298.955 496.166C298.561 497.083 298.364 498.21 298.364 499.545C298.364 500.881 298.561 502.008 298.955 502.925C299.355 503.842 299.915 504.537 300.636 505.011C301.356 505.485 302.199 505.722 303.165 505.722C304.132 505.722 304.975 505.485 305.695 505.011C306.415 504.537 306.973 503.842 307.366 502.925C307.767 502.008 307.967 500.881 307.967 499.545Z" fill="white"/>
<rect width="360" height="800" rx="44" fill="black" fill-opacity="0.47"/>
</svg>
